<?xml version="1.0" encoding="UTF-8"?>
<svg id="Capa_1" data-name="Capa 1" xmlns="http://www.w3.org/2000/svg" xmlns:xlink="http://www.w3.org/1999/xlink" viewBox="0 0 785 191">
  <defs>
    <style>
      .cls-1 {
        opacity: .3;
      }

      .cls-1, .cls-2, .cls-3 {
        fill: none;
      }

      .cls-3 {
        clip-path: url(#clippath);
      }

      .cls-4 {
        fill: #ccc;
        fill-rule: evenodd;
      }
    </style>
    <clipPath id="clippath">
      <rect class="cls-2" width="785" height="191"/>
    </clipPath>
  </defs>
  <g class="cls-3">
    <g class="cls-1">
      <path class="cls-4" d="m525.424,115.816c-2.795,2.679-1.994,2.366-8.497.406-5.703-1.856-2.998-2.471-8.104.51-4.598,2.784-12.104,5.556-15.598,7.713,1.308,2.981,12.499,12.759,15.204,16.772-1.003.511-1.803.928-2.897,1.439-1.701.823-1.296.823-3.302-.406-4.395-2.575-18.506-10.811-21.301-12.04-3.696,1.647-13.502,6.797-16.894,6.588-1.6-.104-4.204-.51-3.697-2.575,1.296-5.045,10.099-7.818,15.801-10.393,2.3-1.032,1.702-.927,2.198-3.502.609-2.773,4.407-22.943,5.297-23.976.395-.313,3.494-1.647,4.103-1.96.304,1.856.495,3.909.597,5.869l1.003,11.425c0,1.856.304,4.014.597,5.765,2.604-1.334,5.196-2.471,7.901-3.804,13.4-6.589,11-2.158,14.099-9.57,1.803-4.117,1.803-6.588,5.703-5.973-.71,8.247,1.487,13.385,7.787,17.712Zm-113.796-79.755c3.607,1.137,2.795,1.241,7.799-3.503,4.396-4.118,1.702-3.503,7.596-2.981,5.196.406,13.198-.313,17.3.104.102,3.19-5.996,16.981-6.796,21.818h3.201c1.905,0,1.499.209,2.897-1.752,2.896-4.326,12.104-18.013,14.2-20.275,4.102-.104,15.001.104,17.999-1.438,1.397-.824,3.595-2.471,2.299-4.118-3.302-3.909-12.397-2.575-18.596-2.366-2.502,0-1.893-.104-3.505-2.157-1.702-2.262-13.502-18.837-14.697-19.347-.496-.104-3.899,0-4.497,0,.406,1.856,1.105,3.7,1.804,5.556l3.899,10.799c.699,1.647,1.398,3.805,1.905,5.451-2.897-.104-5.804,0-8.802,0-14.798,0-10.696,2.981-16.703-2.366-3.291-2.981-4.294-5.15-7.596-2.877,4.001,7.11,4.193,12.759.293,19.451Zm-1.6-10.497c1.499-.209,2.006,2.157.293,2.471l-2.401.313c-1.499.313-2.107-2.157-.406-2.47l2.514-.313Zm-212.378,164.659c-.8,1.647-2.998.406-2.299-1.032l.597-1.334c.8-1.543,2.998-.313,2.198,1.136l-.496,1.23Zm3.798-8.131c-.8,1.543-2.998.418-2.198-1.137l1.105-2.262c.699-1.542,2.896-.313,2.197,1.126l-1.104,2.273Zm4.497-9.059c-.699,1.438-2.998.406-2.198-1.136l1.195-2.262c.699-1.439,2.896-.406,2.197,1.241l-1.194,2.157Zm4.801-8.85c-.902,1.543-2.998.105-2.198-1.241l1.296-2.262c.902-1.542,2.897-.104,2.097,1.23l-1.195,2.273Zm5.004-8.745c-.902,1.438-2.998.104-2.096-1.334l1.296-2.158c.8-1.438,2.998-.104,2.096,1.334l-1.296,2.158Zm5.297-8.642c-.8,1.334-2.998.105-2.096-1.333l1.397-2.158c.8-1.334,2.998-.104,1.995,1.438l-1.296,2.053Zm5.5-8.339c-1.003,1.334-2.897-.209-1.995-1.543l1.398-2.053c1.003-1.334,2.998.209,1.994,1.543l-1.397,2.053Zm5.793-8.236c-1.003,1.334-2.897-.208-1.905-1.542l1.499-2.053c1.003-1.334,2.897.313,1.894,1.542l-1.488,2.053Zm5.804-7.713c-.902.511-1.995-.313-1.905-1.334-.101-.614.395-1.438,1.105-1.542l.8-1.033c1.003-1.229,2.998.313,1.905,1.647l-.203.314.394.104c1.601.615.598,2.981-.901,2.366l-1.195-.522Zm6.706-8.026c-1.206,1.241-2.897-.511-1.803-1.752l1.6-1.856c1.195-1.333,2.897.511,1.803,1.647l-1.6,1.961Zm6.695-7.516c-1.105,1.229-2.998-.511-1.804-1.752l1.702-1.856c1.105-1.229,2.897.511,1.803,1.752l-1.701,1.856Zm6.897-7.203c-1.296,1.136-2.897-.824-1.702-1.856l1.702-1.752c1.296-1.241,2.896.719,1.803,1.856l-1.803,1.751Zm7.202-6.994c-1.206,1.137-2.897-.719-1.702-1.856l1.905-1.751c1.194-1.137,2.896.824,1.6,1.96l-1.803,1.647Zm7.393-6.588c-1.104,1.032-2.795-.824-1.499-1.949l1.905-1.647c1.397-1.137,2.795,1.032,1.499,1.96l-1.905,1.635Zm7.799-6.379c-1.397,1.032-2.795-1.032-1.499-1.96l1.905-1.543c1.397-1.032,2.795,1.032,1.499,1.96l-1.905,1.543Zm7.901-5.973c-1.195.928-2.795-1.032-1.398-2.053.699-.51,1.398-1.032,2.096-1.438,1.195-.928,2.795,1.032,1.398,2.053-.688.51-1.386.928-2.096,1.438Zm8.204-5.66c-1.397.928-2.603-1.334-1.296-2.157l2.097-1.334c1.397-.928,2.704,1.334,1.296,2.157l-2.097,1.334Zm8.397-5.243c-1.296.824-2.694-1.334-1.195-2.262l2.198-1.229c1.296-.823,2.693,1.334,1.194,2.262l-2.197,1.229Zm8.7-4.941c-1.6.824-2.603-1.543-1.205-2.262l2.197-1.229c1.499-.719,2.604,1.647,1.206,2.366l-2.198,1.125Zm8.803-4.524c-1.398.719-2.604-1.543-1.105-2.366.8-.313,1.499-.719,2.299-1.032,1.398-.719,2.502,1.543,1.003,2.262-.699.406-1.499.719-2.197,1.137Zm8.993-4.222c-1.6.615-2.4-1.751-1.003-2.366l2.299-1.032c1.601-.615,2.401,1.844.902,2.366l-2.198,1.032Zm9.107-3.816c-1.499.615-2.401-1.751-.902-2.366l2.401-.928c1.397-.615,2.4,1.751.8,2.366l-2.299.928Zm9.298-3.491c-1.499.51-2.401-1.856-.801-2.366.801-.313,1.601-.615,2.401-.823,1.398-.615,2.299,1.751.699,2.366-.8.302-1.499.51-2.299.823Zm9.399-3.085c-1.702.406-2.198-2.053-.699-2.471l2.401-.719c1.6-.406,2.198,2.053.597,2.471l-2.299.719Zm9.501-2.784c-1.6.417-2.198-2.053-.597-2.471l2.4-.615c1.499-.406,2.198,2.053.598,2.471l-2.401.615Zm9.591-2.366c-1.499.406-2.299-2.053-.597-2.575l2.502-.51c1.702-.313,2.006,2.262.496,2.471l-2.401.615Zm9.602-2.157c-1.6.313-1.995-2.157-.394-2.471l2.4-.406c1.702-.313,2.097,2.157.496,2.471l-2.502.406Zm9.794-1.751c-1.6.313-2.096-2.157-.394-2.471l2.4-.406c1.601-.313,2.097,2.262.395,2.575l-2.401.302ZM65.156,129.398c-2.806,2.679-1.995,2.366-8.498.313-5.703-1.751-2.998-2.47-8.103.615-4.598,2.679-12.104,5.556-15.598,7.713,1.296,2.981,12.499,12.759,15.204,16.772-1.003.511-1.803.824-2.896,1.334-1.702.928-1.296.928-3.302-.313-4.396-2.575-18.495-10.915-21.301-12.04-3.697,1.647-13.502,6.797-16.894,6.588-1.6-.104-4.204-.614-3.697-2.679,1.296-5.045,10.098-7.818,15.801-10.393,2.299-1.032,1.702-.823,2.198-3.398.597-2.877,4.407-22.943,5.297-23.975.304-.313,3.494-1.752,4.102-1.96.304,1.856.507,3.804.597,5.764l1.003,11.53c0,1.751.304,4.013.597,5.66,2.603-1.241,5.196-2.471,7.9-3.7,13.4-6.588,10.898-2.157,14.099-9.569,1.803-4.118,1.702-6.588,5.703-5.974-.71,8.247,1.488,13.397,7.788,17.712Zm-2.896-10.184c-1.499.51-.902,2.877.8,2.471l2.299-.824c1.398-.417.902-2.876-.8-2.47l-2.299.823Zm260.479,55.362c1.296,1.137,2.694-.928,1.499-1.949l-1.003-.823c-1.398-1.137-2.795.928-1.6,1.96l1.104.812Zm-6.897-5.66c1.296,1.032,2.795-.928,1.6-1.961l-1.995-1.647c-1.296-1.032-2.795,1.033-1.499,2.053l1.894,1.555Zm-7.799-6.171c1.194,1.032,2.795-.928,1.499-2.053l-1.995-1.543c-1.296-.928-2.897,1.033-1.499,2.065l1.995,1.531Zm-8.002-5.974c1.397,1.033,2.705-1.229,1.397-2.053l-2.096-1.438c-1.398-1.032-2.705,1.241-1.398,2.053l2.097,1.438Zm-8.205-5.66c1.397.928,2.705-1.229,1.397-2.157l-2.096-1.334c-1.397-.928-2.795,1.137-1.397,2.065l2.096,1.426Zm-8.295-5.451c1.296.823,2.694-1.23,1.195-2.158l-2.097-1.334c-1.296-.823-2.693,1.23-1.296,2.158l2.198,1.334Zm-8.599-5.15c1.6.823,2.603-1.439,1.296-2.262l-2.198-1.23c-1.499-.823-2.603,1.439-1.195,2.262l2.097,1.23Zm-8.6-4.837c1.499.719,2.502-1.543,1.105-2.262l-2.198-1.241c-1.499-.719-2.603,1.543-1.104,2.262l2.197,1.241Zm-8.903-4.524c1.499.72,2.603-1.542,1.093-2.366l-2.198-1.032c-1.397-.719-2.603,1.438-1.104,2.262l2.209,1.136Zm-8.892-4.222c1.6.615,2.4-1.751.901-2.366l-2.299-1.032c-1.499-.615-2.4,1.751-.902,2.366l2.3,1.032Zm-18.405-7.411c1.702.51,2.198-1.961.8-2.367l-2.4-.823c-1.702-.51-2.198,1.96-.8,2.366l2.4.824Zm-9.399-3.086c1.499.511,2.197-1.96.699-2.47l-2.401-.719c-1.6-.418-2.299,2.053-.699,2.47l2.401.719Zm-9.501-2.667c1.397.406,2.299-1.949.597-2.471l-2.4-.615c-1.804-.406-2.097,2.158-.598,2.471l2.401.615Zm-9.591-2.367c1.6.314,1.995-2.157.496-2.47l-2.502-.511c-1.601-.313-2.097,2.158-.507,2.471l2.513.51Zm-9.704-1.855c1.499.313,2.096-2.158.395-2.575-.801-.105-1.702-.314-2.502-.406-1.499-.314-2.097,2.157-.395,2.575.8.092,1.702.197,2.502.406Zm-9.794-1.543c1.702.209,1.905-2.366.304-2.471l-2.4-.313c-1.702-.209-1.905,2.366-.304,2.471l2.4.313Zm-9.805-1.032c1.6.104,1.905-2.367.203-2.575l-2.502-.209c-1.499-.209-1.894,2.366-.102,2.575l2.401.209Zm-9.794-.72c1.702.105,1.601-2.47.102-2.47l-2.502-.105c-1.702-.104-1.702,2.471-.102,2.471l2.502.104Zm-9.906-.208c1.6,0,1.701-2.575,0-2.575h-2.502c-1.499,0-1.702,2.575,0,2.575h2.502Zm-9.896.208c1.803-.208,1.499-2.679-.101-2.575l-2.401.105c-1.702.104-1.499,2.679.102,2.575l2.4-.105Zm-9.794.511c1.601-.105,1.398-2.68-.203-2.575l-2.502.209c-1.6.104-1.397,2.679.203,2.575l2.502-.209Zm-9.805.928c1.499-.105,1.398-2.68-.304-2.471-.8.105-1.702.209-2.502.313-1.499.105-1.398,2.68.304,2.471.8-.105,1.6-.209,2.502-.313Zm-9.794,1.334c1.702-.314,1.105-2.773-.394-2.471l-2.514.313c-1.6.418-1.104,2.888.395,2.575l2.513-.417Zm-9.805,1.751c1.6-.313,1.206-2.877-.394-2.575l-2.502.51c-1.499.314-1.105,2.784.495,2.471l2.401-.406Zm-9.602,1.96c1.499-.209,1.104-2.772-.597-2.47l-2.401.614c-1.702.418-.902,2.877.597,2.471l2.401-.615Zm-9.591,2.471c1.6-.511.902-2.981-.699-2.471l-2.401.615c-1.6.406-.902,2.877.699,2.471l2.401-.615Zm-9.602,2.679c1.6-.406,1.003-2.981-.699-2.47l-2.299.719c-1.499.406-1.003,2.876.699,2.47l2.299-.719Zm447.759-12.248c-1.499.51-.902,2.876.8,2.47l2.299-.823c1.398-.418,1.003-2.877-.8-2.366l-2.299.719Zm260.479,55.466c1.296,1.032,2.795-1.032,1.499-1.96l-1.003-.928c-1.397-1.137-2.795,1.032-1.6,1.96l1.104.928Zm-6.897-5.66c1.307,1.032,2.795-1.033,1.6-2.053l-2.006-1.543c-1.296-1.032-2.806.928-1.499,1.96l1.905,1.636Zm-7.799-6.275c1.194,1.032,2.795-.928,1.499-1.961l-1.995-1.542c-1.296-1.033-2.897.928-1.499,2.053l1.995,1.45Zm-8.002-5.869c1.397.927,2.705-1.23,1.397-2.158l-1.994-1.438c-1.499-.928-2.807,1.241-1.398,2.157l1.995,1.439Zm-8.194-5.765c1.398.928,2.694-1.23,1.398-2.158l-2.096-1.333c-1.398-.928-2.705,1.241-1.398,2.157l2.096,1.334Zm-8.306-5.452c1.307.928,2.705-1.136,1.307-2.157l-2.197-1.334c-1.195-.824-2.694,1.23-1.195,2.262l2.085,1.229Zm-8.498-5.15c1.499.824,2.502-1.438,1.206-2.157l-2.198-1.334c-1.499-.719-2.603,1.543-1.194,2.262l2.186,1.229Zm-8.689-4.836c1.499.719,2.603-1.439,1.093-2.262l-2.198-1.137c-1.499-.823-2.502,1.543-1.104,2.262l2.209,1.137Zm-8.904-4.524c1.499.719,2.604-1.543,1.105-2.262l-2.198-1.136c-1.397-.72-2.592,1.542-1.104,2.261l2.197,1.137Zm-8.903-4.222c1.6.615,2.4-1.751.901-2.366l-2.197-1.032c-1.601-.615-2.502,1.855-1.003,2.366l2.299,1.032Zm-9.197-3.804c1.499.614,2.491-1.752.902-2.471l-2.299-.824c-1.499-.614-2.401,1.752-.902,2.367l2.299.928Zm-9.196-3.503c1.701.51,2.197-2.053.8-2.471l-2.401-.823c-1.702-.511-2.198,1.96-.8,2.47l2.401.824Zm-9.4-3.19c1.601.51,2.198-1.949.699-2.366l-2.401-.719c-1.6-.51-2.299,1.96-.698,2.366l2.4.719Zm-9.501-2.668c1.398.406,2.299-1.96.598-2.47l-2.401-.615c-1.803-.406-2.108,2.157-.597,2.47l2.4.615Zm-9.602-2.273c1.6.313,1.995-2.262.496-2.575l-2.502-.51c-1.601-.313-2.006,2.157-.395,2.47l2.401.615Zm-9.692-1.949c1.498.313,2.107-2.157.394-2.471-.8-.209-1.6-.313-2.502-.51-1.398-.209-2.096,2.262-.395,2.575.902.093,1.702.302,2.503.406Zm-9.806-1.543c1.702.209,1.905-2.262.305-2.471l-2.401-.313c-1.702-.209-1.905,2.366-.304,2.471l2.4.313Zm-9.794-1.032c1.601.209,1.894-2.366.203-2.575l-2.502-.209c-1.499-.104-1.904,2.366-.101,2.575l2.4.209Zm-9.805-.615c1.702,0,1.601-2.575.102-2.575l-2.502-.104c-1.702,0-1.702,2.471-.102,2.575l2.502.104Zm-9.895-.313c1.6,0,1.702-2.471,0-2.575h-2.502c-1.499,0-1.702,2.575,0,2.575h2.502Zm-9.895.209c1.803-.104,1.499-2.679-.102-2.575l-2.4.104c-1.702.104-1.499,2.679.101,2.575l2.401-.104Zm-9.806.51c1.601-.104,1.499-2.679-.202-2.471l-2.502.209c-1.601.104-1.398,2.575.202,2.471l2.502-.209Zm-9.794,1.032c1.499-.209,1.398-2.784-.304-2.575-.8.104-1.702.209-2.502.313-1.499.104-1.397,2.679.304,2.471.801-.104,1.601-.209,2.502-.209Zm-9.805,1.229c1.702-.313,1.094-2.772-.394-2.471l-2.502.406c-1.601.313-1.105,2.784.394,2.471l2.502-.406Zm-9.805,1.751c1.601-.313,1.206-2.772-.394-2.47l-2.491.406c-1.499.313-1.105,2.877.496,2.575l2.389-.51Zm-9.591,2.065c1.499-.313,1.105-2.877-.597-2.471l-2.401.51c-1.702.51-.901,2.888.598,2.471l2.4-.51Zm-9.602,2.366c1.6-.51.901-2.876-.597-2.47l-2.503.615c-1.6.51-.901,2.876.699,2.47l2.401-.615Zm-9.501,2.668c1.499-.406.902-2.876-.699-2.47l-2.4.719c-1.499.406-1.003,2.981.698,2.47l2.401-.719Z"/>
    </g>
  </g>
</svg>